<?xml version="1.0" encoding="UTF-8"?>
<!DOCTYPE svg PUBLIC "-//W3C//DTD SVG 1.1//EN" "http://www.w3.org/Graphics/SVG/1.1/DTD/svg11.dtd">
<!-- Creator: CorelDRAW (Versão OEM) -->
<svg xmlns="http://www.w3.org/2000/svg" xml:space="preserve" width="39.6557mm" height="15.9215mm" version="1.1" style="shape-rendering:geometricPrecision; text-rendering:geometricPrecision; image-rendering:optimizeQuality; fill-rule:evenodd; clip-rule:evenodd"
viewBox="0 0 76.37 30.66"
 xmlns:xlink="http://www.w3.org/1999/xlink"
 xmlns:xodm="http://www.corel.com/coreldraw/odm/2003">
 <defs>
  <style type="text/css">
   <![CDATA[
    .fil2 {fill:#FAFAFA}
    .fil0 {fill:#FDFDFD}
    .fil1 {fill:#FEFEFE}
   ]]>
  </style>
 </defs>
 <g id="Camada_x0020_1">
  <metadata id="CorelCorpID_0Corel-Layer"/>
  <g id="_2851264787200">
   <path class="fil0" d="M66.27 30.66c-0.98,-0.04 -3.87,0.06 -6.82,-2.51 -6.71,-5.82 -3.23,-19.87 8.61,-18.19 6.43,0.91 9.93,8.3 7.58,14.32 -2.42,6.18 -8.46,6.36 -9.37,6.38zm-18.59 -4.29c8.45,0 8.53,-0.02 8.57,0.13 0.08,0.25 0.03,0.26 0.02,3.28 -0,0.4 0.05,0.55 -0.35,0.55 -1.05,0 -12.98,0.01 -13.1,-0.01 -0.22,-0.03 -0.2,-0.14 -0.2,-4.55 0,-15.48 -0.02,-15.54 0.11,-15.59 0.06,-0.02 4.15,-0.05 4.24,0.01 0.14,0.11 0.09,0.16 0.1,13.57 0,0.24 -0,2.38 0,2.42 0.02,0.16 0.55,0.18 0.6,0.18zm18.17 0.21c-0.14,-0.02 -0.29,-0.02 -0.43,-0.04 -6.59,-1 -6.54,-11.71 0.11,-12.6 7.72,-1.04 9.07,12.73 0.32,12.64zm6.54 -19.88c-4.49,-0.21 -4.4,-5.88 -0.74,-6.61 4.77,-0.95 6.12,6.37 0.74,6.61zm-29.25 -0.08c-0.34,-0.04 -0.49,0.07 -0.5,-0.27 -0,-0.49 -0.02,-6.05 0.01,-6.11 0.13,-0.28 3.15,-0.11 3.33,-0.08 2.09,0.37 2.8,2.9 0.77,4.13 -0.26,0.16 -0.11,0.28 0.87,1.68 0.12,0.16 0.45,0.52 0.3,0.65 -0.06,0.05 -0.86,0.1 -1.06,-0.18 -1.18,-1.67 -1.1,-1.85 -1.51,-1.85 -1.24,-0.02 -1.72,-0.04 -1.73,0.18 -0.03,0.58 0.1,1.78 -0.15,1.85 -0.03,0.01 -0.02,0 -0.33,0.02zm18.16 0c-0.28,-0.04 -0.57,0.17 -0.57,-0.49 -0,-0.47 -0.05,-5.72 0.03,-5.92 0.07,-0.18 0.13,-0.14 2.44,-0.12 3.84,0.04 3.19,3.66 1.49,4.27 -1.43,0.51 -2.97,-0.11 -2.98,0.51 -0,0.09 0,1.52 -0,1.58 -0.02,0.26 -0.14,0.14 -0.41,0.17zm11.09 -0.77c-3.45,-0.42 -2.86,-4.16 -0.83,-4.84 3.4,-1.15 5.01,4.52 0.83,4.84zm-18.27 0.85c-0.21,-0.01 -2.37,0.07 -2.72,-2.26 -0.07,-0.48 -0.05,-4.13 -0.02,-4.22 0.07,-0.2 0.79,-0.12 0.84,-0.1 0.21,0.11 0.06,2.89 0.11,3.9 0.11,2.02 1.99,1.99 2.72,1.65 1.8,-0.84 0.47,-5.36 1.07,-5.56 0.83,-0.27 0.83,0.25 0.83,0.32 0.02,4.29 -0.02,4.37 -0.32,4.95 -0.72,1.42 -2.42,1.31 -2.51,1.31zm8.98 -2.94c-0.63,-0 -1.38,0.12 -1.38,-0.27 -0.03,-2.4 -0.07,-2.46 0.12,-2.54 0.07,-0.03 1.68,-0.07 2.11,0.04 1.62,0.41 1.43,2.64 -0.31,2.75 -0.18,0.01 -0.35,0.01 -0.53,0.02zm-18.8 -0.01c-0.44,-0.01 -0.67,0.2 -0.68,-0.25 -0.05,-2.42 -0.05,-2.49 0.14,-2.55 0.02,-0.01 1.62,-0.07 2.11,0.06 0.16,0.04 1.36,0.36 1.03,1.74 -0.29,1.22 -2.18,1 -2.61,1.01z"/>
   <path class="fil0" d="M30.57 26.48c9.54,0.01 9.65,-0.05 9.7,0.14 0,0.02 0.08,3.49 -0.04,3.63 -0.11,0.14 -0.16,0.07 -13.46,0.08 -0.22,0 -1.14,0.11 -1.15,-0.23 -0,-0.07 -0.02,-14.65 0.01,-14.99 0.03,-0.36 0.11,-0.34 1.85,-4.13 0.28,-0.62 0.21,-0.69 0.43,-0.77 0.14,-0.05 0.14,-0.04 11.64,-0.04 0.57,-0 0.41,0.25 0.41,0.82 0.01,2.89 0,2.97 -0.18,3.01 -0.26,0.06 -9.48,-0.05 -9.62,0.07 -0.12,0.1 -0.09,0.2 -0.09,3.37 -0,0.54 -0.14,0.78 0.4,0.78 3.06,0.03 8.18,-0.09 8.31,0.09 0.04,0.05 0.18,3.58 -0.07,3.67 -0.19,0.06 -8.41,-0.02 -8.53,0.05 -0.13,0.08 -0.1,0.13 -0.11,3.44 -0,0.07 -0,0.88 0.03,0.93 0.11,0.17 0.15,0.08 0.48,0.1z"/>
   <path class="fil1" d="M24.98 0.08c4.33,0 4.44,-0.03 4.44,0.14 0,0.17 -3.84,8.34 -4.18,9.06 -1.09,2.32 -5.54,11.95 -6.02,12.99 -2.57,5.57 -2.57,5.65 -2.7,5.62 -0.09,-0.01 -0.06,-0.04 -0.24,-0.52 -1.55,-4 -1.67,-3.94 -3.24,-7.94 -0.17,-0.43 0.12,-0.8 0.47,-1.61 0.62,-1.41 7.71,-17.44 7.79,-17.59 0.11,-0.19 0.17,-0.16 3.66,-0.16z"/>
   <path class="fil1" d="M14.1 30.33c-5.61,-0.01 -5.67,0.03 -5.77,-0.15 -0.1,-0.17 -6.93,-16.51 -8.14,-19.32 -0.02,-0.05 -0.25,-0.58 -0.18,-0.66 0.06,-0.06 0.08,-0.03 6.59,-0.05 0.37,-0 0.64,-0.05 0.74,0.19 2.5,6.25 8.03,19.74 8.02,19.85 -0.01,0.18 -0.71,0.13 -1.26,0.13z"/>
   <path class="fil2" d="M36.49 6.7c-5.38,-0.3 -4,-7.6 0.85,-6.61 0.87,0.18 1.76,0.8 1.54,1.04 -0.13,0.14 -0.37,0.53 -0.73,0.28 -3.2,-2.2 -5.86,2.48 -2.81,4.15 0.91,0.5 2.67,0.26 2.69,-0.39 0.04,-1.61 -0.18,-1.83 0.26,-1.87 0.76,-0.06 0.67,0.22 0.67,0.28 0.03,2.16 0.07,2.17 -0.04,2.32 -0.49,0.68 -2.22,0.77 -2.42,0.78z"/>
  </g>
 </g>
</svg>
