<?xml version="1.0" encoding="UTF-8"?>
<!DOCTYPE svg PUBLIC "-//W3C//DTD SVG 1.1//EN" "http://www.w3.org/Graphics/SVG/1.1/DTD/svg11.dtd">
<!-- Creator: CorelDRAW (Versão OEM) -->
<svg xmlns="http://www.w3.org/2000/svg" xml:space="preserve" width="34.3796mm" height="16.0539mm" version="1.1" style="shape-rendering:geometricPrecision; text-rendering:geometricPrecision; image-rendering:optimizeQuality; fill-rule:evenodd; clip-rule:evenodd"
viewBox="0 0 53.36 24.92"
 xmlns:xlink="http://www.w3.org/1999/xlink"
 xmlns:xodm="http://www.corel.com/coreldraw/odm/2003">
 <defs>
  <style type="text/css">
   <![CDATA[
    .fil1 {fill:#F9F9F9}
    .fil0 {fill:#FDFDFD}
   ]]>
  </style>
 </defs>
 <g id="Camada_x0020_1">
  <metadata id="CorelCorpID_0Corel-Layer"/>
  <g id="_2851263096240">
   <path class="fil0" d="M8.95 24.89c-2.8,0.1 -3,-2.11 -4.16,-4.95 -0.04,-0.09 -3.79,-10.04 -4.12,-10.91 -0.73,-1.91 -0.72,-1.94 -0.63,-2.09 0.08,-0.14 0.12,-0.12 2.66,-0.12 0.44,0 0.95,-0.07 1.06,0.21 0.08,0.19 4.81,13.41 4.92,13.46 0.17,0.09 0.1,-0.1 0.9,-2.27 2.22,-6.03 2.53,-8.35 5.17,-10.15 2.12,-1.44 3.76,-1.24 9,-1.25 2.85,-0 2.91,0 2.98,0.18 0.09,0.21 0.06,0.21 0.04,2.82 -0,0.44 -0.23,0.36 -2.66,0.36 -5.56,-0 -5.96,-0.1 -7.23,0.75 -1.65,1.1 -2.02,3.19 -3.47,6.79 -2.25,5.6 -1.92,5.89 -3.17,6.73 -0.48,0.32 -1.17,0.42 -1.28,0.44z"/>
   <path class="fil0" d="M43.71 24.89c-0.69,-0.1 -0.69,-0.08 -1.37,-0.25 -2.63,-0.66 -4.46,-2.88 -4.52,-3.11 -0.05,-0.2 0.08,-0.13 0.28,-0.13 3.11,0.05 3.11,-0.13 6.17,0.08 7.01,0.48 7.2,-11.21 0.57,-11.41 -4.24,-0.13 -6,4.53 -4.94,7.73 0.54,1.65 1.28,2.07 1.27,2.23 -0,0.08 -0.04,0.07 -1,0.06 -3.03,-0.01 -3.18,0.06 -3.29,-0.14 -1.25,-2.36 -1.52,-7.48 1.57,-10.68 3.56,-3.69 8.94,-3.13 11.7,-0.66 6.08,5.44 3.21,16.94 -6.46,16.29z"/>
   <path class="fil0" d="M16.99 24.75c-1.69,-0.33 -1.47,-1.68 -1.46,-3.5 0,-5.12 -0.02,-5.29 0.04,-5.45 0.93,-2.52 0.99,-2.48 1.09,-2.65 0.78,-1.41 2.18,-1.62 2.34,-1.59 0.21,0.04 0.02,2.22 0.11,2.45 0.04,0.11 0.1,0.08 4.7,0.09 1.74,0 2.03,-0.12 2.03,0.47 0.02,2.6 0.06,2.64 -0.11,2.78 -0.17,0.15 -6.32,0.02 -6.53,0.07 -0.1,0.03 -0.12,0.06 -0.12,1.6 0,2.06 -0.02,2.27 0.02,2.32 0.04,0.05 0.06,0.08 7.5,0.06 0.46,-0 0.35,0.47 0.35,0.85 0.01,2.25 0.07,2.4 -0.21,2.5 -0.08,0.03 -9.08,0.03 -9.76,-0z"/>
   <path class="fil0" d="M30.42 24.67c-0.07,-0.02 -1.12,-0.17 -1.78,-1.29 -0.66,-1.14 -0.42,-2.34 -0.45,-14.92 -0,-1.29 -0.15,-1.63 0.5,-1.63 2.89,-0.02 2.97,-0.02 3.06,0.21 0.05,0.14 -0.01,13.48 0.03,13.92 0.05,0.53 0.29,0.45 3.09,0.44 1.16,-0 1.25,-0.08 1.46,0.26 1.85,2.99 3.81,3.17 2.85,3.12 -2.2,-0.1 -7.1,0.12 -8.76,-0.11z"/>
   <path class="fil1" d="M33.23 2c0.14,-2.65 3.55,-2.47 4.02,-0.58 0.71,2.89 -3.8,3.63 -4.02,0.58zm-12.63 1.44c0,-2.5 -0.01,-3.2 -0.01,-3.23 0.02,-0.15 0.09,-0.18 1.85,-0.13 1.31,0.04 1.99,1.56 0.82,2.46 -0.28,0.22 0.6,1.12 0.6,1.26 -0,0.1 -0.58,0.09 -0.63,0.09 -0.45,-0.01 -0.35,-0.19 -0.88,-0.94 -0.16,-0.22 -0.69,-0.14 -0.7,-0.14 -0.33,0.01 -0.12,0.81 -0.19,1 -0.04,0.1 -0.62,0.09 -0.67,0.09 -0.31,-0 -0.19,-0.15 -0.19,-0.46zm11.61 -1.08c-1.04,0.91 -2.06,0.13 -2.07,0.65 -0.01,0.41 0.1,0.89 -0.22,0.89 -0.01,0 -0.64,0.09 -0.67,-0.17 -0.01,-0.12 -0.01,-3.49 0,-3.52 0.03,-0.12 0.07,-0.15 1.6,-0.13 1.85,0.03 2.02,1.39 1.36,2.28zm-12.64 0.79c-0,0.02 0.2,0.51 -1,0.76 -2.77,0.58 -3.57,-3.18 -1.14,-3.83 1.19,-0.32 2.32,0.42 2.07,0.69 -0.29,0.31 -0.32,0.52 -0.66,0.25 -0.89,-0.73 -2.53,0.22 -1.81,1.61 0.32,0.63 1.72,0.83 1.73,0.16 0,-0.36 -0.01,-0.36 -0.01,-0.72 0,-0.25 0.81,-0.23 0.82,-0 0,0.09 0.01,0.14 0.01,1.08zm8.57 -0.5c-0.36,1.92 -3.24,1.73 -3.38,-0.22 -0.01,-0.11 -0.04,-2.2 0.02,-2.28 0.06,-0.09 0.87,-0.21 0.87,0.13 0.04,1.7 -0.29,2.92 0.89,2.92 1.4,-0.01 0.38,-3.12 0.94,-3.12 0.05,-0 0.68,-0.1 0.69,0.2 0.03,1.53 -0.02,2.18 -0.03,2.37zm6.01 -0.43c-0.07,-1.89 1.7,-1.61 2.1,-0.94 0.92,1.53 -1.5,2.96 -2.1,0.94zm-2.5 -0.65c-0.19,0.48 -0.33,0.55 -1.3,0.52 -0.02,-0 -0.2,-0.01 -0.21,-0.16 -0.02,-1.03 -0,-1.13 0.21,-1.13 0.61,-0.01 1.35,-0.09 1.3,0.77zm-8.71 0.07c-0.22,0.51 -0.63,0.45 -1.2,0.45 -0.29,0 -0.26,-0.14 -0.25,-1.09 0,-0.36 1.07,-0.25 1.32,0.01 0.2,0.21 0.14,0.58 0.13,0.63z"/>
  </g>
 </g>
</svg>
