<?xml version="1.0" encoding="UTF-8"?>
<!DOCTYPE svg PUBLIC "-//W3C//DTD SVG 1.1//EN" "http://www.w3.org/Graphics/SVG/1.1/DTD/svg11.dtd">
<!-- Creator: CorelDRAW (Versão OEM) -->
<svg xmlns="http://www.w3.org/2000/svg" xml:space="preserve" width="41.6289mm" height="16.1739mm" version="1.1" style="shape-rendering:geometricPrecision; text-rendering:geometricPrecision; image-rendering:optimizeQuality; fill-rule:evenodd; clip-rule:evenodd"
viewBox="0 0 72.71 28.25"
 xmlns:xlink="http://www.w3.org/1999/xlink"
 xmlns:xodm="http://www.corel.com/coreldraw/odm/2003">
 <defs>
  <style type="text/css">
   <![CDATA[
    .fil0 {fill:#FDFDFD}
   ]]>
  </style>
 </defs>
 <g id="Camada_x0020_1">
  <metadata id="CorelCorpID_0Corel-Layer"/>
  <path class="fil0" d="M61.73 8.33c8.69,-0.5 11.88,6.83 10.75,12.15 -1.89,8.91 -14.24,10.7 -18.58,2.48 -2.53,-4.78 -0.99,-13.49 7.83,-14.63zm-26.62 19.6c-6.47,-0 -6.46,0.01 -7.03,0 -1.22,-0.01 -1.74,-0.56 -2.01,-1.09 -0.34,-0.66 -0.25,-0.7 -0.26,-12.75 -0,-3.57 -0.23,-4.84 1.35,-5.37 0.71,-0.24 0.74,-0.16 9.43,-0.14 3.03,0.01 2.16,2.63 2,2.9 -0.75,1.34 -2.76,0.77 -8.38,0.88 -0.3,0.01 -0.2,0.86 -0.2,0.89 0,2.92 0.02,2.92 0.03,2.95 0.11,0.17 3.76,0.05 5.53,0.08 2.3,0.04 2.4,2.56 1.19,3.43 -0.98,0.7 -6.52,0.05 -6.72,0.4 -0.13,0.24 -0.04,3.56 -0.03,3.87 0.01,0.19 0.26,0.19 0.29,0.19 6.21,0.01 6.21,-0.01 6.75,0 1.9,0.05 1.97,1.76 1.86,2.31 -0.35,1.72 -2.04,1.45 -3.8,1.45zm-32.35 -19.51c2.78,0.77 1.67,4.07 5.72,4.95 0.47,0.1 1.8,0.18 2.84,0.95 0.21,0.16 0.01,0.2 -0.76,1.2 -1.22,1.57 -2.78,2.79 -1.31,3.72 0.5,0.32 2,0.65 3.29,-0.62 0.52,-0.5 0.89,-1.18 1.27,-0.87 0.07,0.06 4.12,3.78 4.36,4.04 0.79,0.86 -0.26,1.91 -1.15,1.14 -1.69,-1.46 -2.73,-2.82 -3.05,-2.17 -0.21,0.41 1.64,1.71 2.64,2.77 0.74,0.78 -0.17,1.95 -1.18,1.08 -1.57,-1.36 -2.81,-2.84 -2.99,-2.02 -0.16,0.71 3.22,2.37 2.68,3.41 -0.34,0.65 -1.01,0.59 -1.45,0.1 -0.63,-0.7 -0.62,-0.72 -1.47,-1.13 -0.23,-0.11 -0.27,-1.04 -1.22,-1.36 -0.46,-0.15 -0.51,-0.1 -0.58,-0.27 -0.68,-1.64 -1.4,-0.91 -1.65,-1.29 -0.13,-0.2 -0.21,-0.81 -1.1,-1.11 -0.98,-0.32 -1.62,0.65 -1.83,0.44 -0.19,-0.2 -4.3,-7.37 -4.67,-8.01 -0.56,-0.97 -1.9,-2.54 -0.6,-4.17 0.77,-0.96 2.03,-0.81 2.21,-0.79zm59.71 3.77c8.14,0.04 7.36,11.63 0.92,12.13 -6.34,0.49 -7.67,-6.95 -4.96,-10.1 1.44,-1.67 2.67,-1.91 4.04,-2.03zm-17.29 15.74c-1.75,0 -4.19,0.36 -4.27,-2.09 -0.01,-0.23 -0,-14.9 0,-15.25 0.04,-2.55 3.41,-2.97 4.11,-0.65 0.23,0.77 -0,13.8 0.12,14.08 0.08,0.19 3.49,0.07 6.14,0.1 2.33,0.03 2.32,2.27 1.62,3.17 -0.59,0.76 -0.77,0.65 -7.72,0.65zm-23.86 -19.51c1.83,-0.24 3.67,1.39 2.27,3.85 -0.39,0.68 -4.65,8.16 -4.94,8.48 -0.17,0.19 -0.21,-0.02 -4.55,-3.96 -1.09,-0.99 -2.19,2.4 -4.14,1.8 -0.92,-0.28 -0.15,-0.73 1.71,-3.06 2.04,-2.55 2.71,-1.49 5.01,-2.51 2.86,-1.26 2.1,-3.92 4.63,-4.62zm26.17 -2.86c-3.96,-0.21 -3.47,-5.1 -0.55,-5.49 4.01,-0.54 4.77,5.18 0.55,5.49zm-14.98 -0.08c-1.11,0.17 -1.4,-1.76 -2.03,-1.79 -0.06,-0 -0.63,-0.03 -0.72,0.07 -0.14,0.18 0.31,1.92 -0.76,1.74 -0.58,-0.1 -0.49,-0.35 -0.49,-3.97 -0,-1.01 -0.16,-1.41 0.86,-1.41 1.13,-0.01 3.77,-0.37 3.58,1.96 -0.09,1.19 -1.21,1.18 -0.86,1.64 0.54,0.7 1.26,1.32 0.41,1.76zm8.98 -1.67c-0.41,0.02 -0.49,-0.09 -0.55,0.12 -0.02,0.07 -0.02,0.9 -0.02,0.92 -0.02,0.93 -1.19,0.8 -1.21,0.1 -0.02,-0.59 -0,-4.12 -0,-4.16 0.03,-0.72 0.3,-0.71 2.24,-0.68 2.52,0.04 2.15,2.3 1.83,2.79 -0.68,1.04 -1.95,0.9 -2.3,0.9zm-15.54 1.67c-5.14,0.72 -4.37,-6.32 -0,-5.4 1.95,0.41 1.27,1.69 0.55,1.47 -0.03,-0.01 -1.41,-1 -2.38,-0.02 -1.19,1.21 -0.1,3.53 1.83,2.83 0.61,-0.22 0.4,-0.98 0.19,-0.98 -0.01,-0 -1.11,0.16 -1.13,-0.47 -0.01,-0.47 0.43,-0.51 0.49,-0.52 1.8,-0.16 1.9,0.27 1.94,0.42 0,0.01 0.14,1.61 -0.11,1.93 -0.34,0.44 -1.26,0.69 -1.38,0.73zm10.36 0.08c-0.31,-0.02 -1.77,0.06 -2.28,-1.45 -0.18,-0.52 -0.23,-3.57 0.01,-3.84 0.16,-0.18 1.06,-0.54 1.07,0.61 0.02,2.12 -0.28,3.6 1.2,3.58 2.2,-0.04 0.09,-4.56 1.75,-4.38 0.53,0.06 0.53,0.26 0.52,3.02 -0.01,2.34 -1.65,2.41 -2.27,2.46zm11.37 -1.1c-2.86,0.03 -2.02,-4 0.28,-3.29 1.31,0.4 1.75,2.88 -0.28,3.29zm-39.38 20.9c-1.02,0.16 -1.06,-0.78 -0.79,-1.15 0.55,-0.74 1.36,-1.69 1.97,-0.93 0.56,0.71 -0.8,1.92 -1.18,2.08zm1.39 1.38c-1.8,-0.31 0.19,-2.5 0.92,-2.36 0.06,0.01 1.17,0.34 0.24,1.44 -0.59,0.69 -0.7,0.85 -1.16,0.93zm1.66 1.29c-1.81,-0.26 0.09,-2.53 0.93,-2.21 1.01,0.38 0.09,1.43 0.01,1.52 -0.43,0.48 -0.38,0.56 -0.94,0.69zm-4.72 -4.06c-1.19,0.05 -1.01,-1.16 0.13,-2.06 0.62,-0.49 1.82,0.17 0.78,1.33 -0.58,0.65 -0.64,0.65 -0.91,0.73zm24.5 -21.33c-0.74,0.06 -1.4,0.11 -1.4,-0.18 -0.02,-0.92 -0.03,-1.29 0.2,-1.3 0.25,-0.02 2.07,-0.18 1.81,0.93 -0.09,0.4 -0.55,0.54 -0.61,0.56zm11.17 0.07c-0.11,0.03 -1.38,0.35 -1.39,-0.15 -0.02,-1.07 -0.03,-1.39 0.2,-1.4 0.14,-0 1.81,-0.23 1.67,0.93 -0.05,0.41 -0.13,0.39 -0.48,0.62z"/>
 </g>
</svg>
