<?xml version="1.0" encoding="UTF-8"?>
<!DOCTYPE svg PUBLIC "-//W3C//DTD SVG 1.1//EN" "http://www.w3.org/Graphics/SVG/1.1/DTD/svg11.dtd">
<!-- Creator: CorelDRAW (Versão OEM) -->
<svg xmlns="http://www.w3.org/2000/svg" xml:space="preserve" width="35.5807mm" height="16.1739mm" version="1.1" style="shape-rendering:geometricPrecision; text-rendering:geometricPrecision; image-rendering:optimizeQuality; fill-rule:evenodd; clip-rule:evenodd"
viewBox="0 0 49.87 22.67"
 xmlns:xlink="http://www.w3.org/1999/xlink"
 xmlns:xodm="http://www.corel.com/coreldraw/odm/2003">
 <defs>
  <style type="text/css">
   <![CDATA[
    .fil0 {fill:#FBFBFB}
   ]]>
  </style>
 </defs>
 <g id="Camada_x0020_1">
  <metadata id="CorelCorpID_0Corel-Layer"/>
  <path class="fil0" d="M4.75 17.73c-0.08,-0.19 -0.6,-1.39 -0.99,-2.35 -1.64,-3.96 -1.83,-4.13 -1.61,-4.15 1.9,-0.11 2.28,0.29 2.42,0.44 0.21,0.22 0.26,0.28 1.55,3.44 0.93,2.28 0.89,2.29 1.81,4.57 0.1,0.25 0.25,-0.25 0.28,-0.34 1.92,-4.7 4.58,-11.66 10.71,-14.56 8.92,-4.22 14.74,3.71 14.77,3.74 0.1,0.11 0.12,0.09 1.48,0.19 0.34,0.03 0.58,-0.57 1.33,-1.23 4.95,-4.36 8.94,0.63 10.13,2.44 1.54,2.36 1.56,2.58 1.32,2.59 -0.78,0.01 -0.87,0.03 -0.99,-0.21 -0.17,-0.35 -1.34,-2.74 -2.74,-4.11 -3.57,-3.5 -6.3,-1.66 -8.28,0.38 -0.27,0.28 0.36,0.23 0.5,0.24 0.51,0.05 0.5,0.05 1.02,0.1 0.6,0.05 4.97,0.45 7.44,0.91 0.62,0.12 0.45,0.41 0.34,0.4 -0.66,-0.09 -4.45,-0.63 -8.25,-0.85 -1.49,-0.09 -1.57,-0.18 -1.8,0.13 -0.3,0.41 -0.38,0.45 -0.21,0.71 0.12,0.17 1.43,2.11 1.39,2.25 -0.12,0.34 -0.38,-0.33 -1.04,-1.24 -0.53,-0.72 -0.6,-1.06 -0.81,-0.74 -1.1,1.72 -1.03,1.76 -1.13,1.91 -0.16,0.25 -0.31,0.07 -0.31,0.07 -0.05,-0.11 1.31,-2.41 1.31,-2.44 0.03,-0.14 -0.53,-0.78 -0.59,-0.81 -0.02,-0.01 -7.69,-0.56 -16.3,-0.25 -1.7,0.06 -1.75,0.01 -1.88,0.19 -2.83,3.85 -3.79,7.45 -6.05,12.36 -0.5,1.09 -2.01,1.29 -2.81,0.53 -0.28,-0.26 -0.39,-0.37 -2.02,-4.32zm42.56 0.48c-1.53,5.76 -8.84,5.54 -11.11,1.61 -2.07,-3.59 -0.02,-9.16 5.93,-8.72 1.72,0.13 3.18,1.06 3.82,1.8 1.8,2.06 1.58,4 1.36,5.31zm-29.58 0.07c-0,2.04 -0.06,2.18 0.18,2.18 2.28,0.02 6.3,-0.04 6.43,0.04 0.06,0.04 0.07,1.88 -0.03,1.94 -0.04,0.03 -7.49,0.08 -7.9,-0.02 -1.25,-0.31 -1.03,-1.67 -1.03,-2.92 -0,-7.02 -0.01,-7.03 0.1,-7.37 0.35,-1.06 1.31,-0.88 3.7,-0.89 0.38,-0 4.76,-0.01 4.8,-0 0.17,0.02 0.15,0.1 0.15,1.63 -0,0.25 0.04,0.35 -0.21,0.35 -1.79,0.01 -5.23,-0 -5.68,-0 -0.04,-0 -0.44,-0 -0.48,0.05 -0.13,0.13 -0.04,0.17 -0.05,2.31 -0,0.25 0.14,0.18 2.22,0.18 3.36,0 3.41,-0.02 3.45,0.09 0,0.01 0.04,1.72 -0.02,1.8 -0.05,0.06 -0.07,0.05 -3.22,0.06 -2.28,0.01 -2.4,-0.1 -2.42,0.1 -0,0.04 0,0.03 0,0.47zm0.53 -11.76c0.11,-0.08 0.92,-0.66 1.42,-0.94 0.99,-0.56 2.24,-0.97 2.7,-1.07 6.17,-1.43 10.32,3.49 10.64,3.8 0.02,0.02 0.31,0.3 0.11,0.3 -1.63,-0.03 -1.62,-0.09 -3.25,-0.16 -8.62,-0.35 -13.55,0.13 -13.63,0 -0.06,-0.09 1.16,-1.32 2.01,-1.94zm26.83 9.94c0.01,0.26 0.26,2.37 -1.69,3.62 -1.81,1.16 -5.42,0.35 -5.64,-2.95 -0.25,-3.69 3.95,-5.14 6.18,-3.09 1.01,0.93 1.1,2.1 1.15,2.42zm-11.62 3.94c1.07,0 1.32,-0.06 1.33,0.18 0.03,1.7 0.04,1.7 -0.03,1.83 -0.04,0.07 -0.06,0.05 -4.95,0.05 -1.92,0 -2.98,0.2 -3.35,-1.09 -0.01,-0.02 -0.06,-0.02 -0.05,-7.9 0,-2.12 -0.04,-2.22 0.15,-2.24 1.65,-0.09 1.95,0.3 2.14,0.96 0.15,0.54 0.03,7.58 0.07,8.04 0.02,0.19 0.11,0.15 1.85,0.16 0.53,0 0.65,-0 2.84,-0zm-28.22 -13.43c0.69,-0.48 2.17,-1.55 4.54,-1.05 1.8,0.38 3.16,1.86 3.37,2.09 0.35,0.38 0.51,0.5 0.33,0.72 -0.33,0.39 -0.35,0.39 -0.86,0.42 -3.04,0.14 -7.6,0.54 -8.25,0.59 -2,0.17 -4.19,0.5 -4.25,0.47 -0.81,-0.3 2.46,-0.36 2.7,-0.65 0.84,-1 0.68,-1.16 2.43,-2.58zm-0.93 1.31c1.81,-1.71 3.39,-2.44 5.54,-1.76 1.27,0.41 2.86,1.99 2.76,2.14 -0.03,0.04 -5.21,0.44 -7.08,0.68 -0.18,0.02 -2.16,0.28 -2.23,0.27 -0.13,-0.02 -0.08,-0.14 1.02,-1.33zm27.91 -6.98c-0.45,1.71 -2.96,0.6 -2.12,-0.79 0.49,-0.8 2.28,-0.75 2.12,0.79zm-11.32 0.07c-0,-0.15 -0.01,-1.14 0.01,-1.23 0.04,-0.15 0.4,-0.12 0.84,-0.11 1.14,0.01 1.12,0.92 0.74,1.27 -0.43,0.39 0.56,0.81 0.14,0.83 -0.75,0.04 -0.55,-0.54 -0.89,-0.6 -0.58,-0.12 -0.2,0.55 -0.47,0.6 -0.54,0.12 -0.39,-0.2 -0.39,-0.76zm6.68 0.41c-0.01,0.35 -0.07,0.46 -0.41,0.33 -0.14,-0.05 -0.12,-1.96 -0.02,-2.05 0.03,-0.02 1.78,-0.3 1.75,0.7 -0.03,1.07 -1.29,0.62 -1.32,0.88 -0.01,0.04 0,0.09 -0,0.13zm-9.9 -0.54c-0.14,-1.73 2.16,-1.29 1.93,-0.81 -0.1,0.23 -0.4,0.09 -0.43,0.07 -1.04,-0.49 -1.49,1.23 -0.26,1.22 0.55,-0 0.09,-0.68 0.47,-0.69 0.35,-0.01 0.3,0.26 0.27,0.73 -0.01,0.26 -0.58,0.47 -1.16,0.35 -0.62,-0.13 -0.81,-0.8 -0.83,-0.89zm8.14 -0.48c-0,0.17 0.19,1.4 -0.95,1.4 -1.12,0.01 -0.96,-1.18 -0.96,-1.94 0,-0.29 0.5,-0.29 0.5,0 -0,0.53 -0.16,1.7 0.6,1.49 0.64,-0.17 0.07,-1.66 0.47,-1.68 0.51,-0.02 0.34,0.23 0.34,0.73zm5.92 0.34c-0.15,1.24 -1.72,0.43 -1.17,-0.39 0.2,-0.29 1.05,-0.64 1.17,0.39zm15.86 9.18c0.18,0.03 2.15,0.35 2.21,0.39 0.03,0.02 0.15,0.23 -0.18,0.17 -2.26,-0.37 -2.54,-0.38 -2.34,-0.58 0.02,-0.02 0.01,-0.04 0.31,0.02zm-20.02 -9.45c0.01,-0.3 -0.01,-0.31 0.04,-0.36 0.04,-0.04 0.08,-0.04 0.09,-0.04 1.14,-0.06 0.64,0.68 0.41,0.68 -0.37,0.01 -0.51,0.09 -0.54,-0.28zm-6.17 0c0.02,-0.26 -0.11,-0.39 0.15,-0.41 0.9,-0.06 0.76,0.6 0.41,0.68 -0.39,0.09 -0.53,0.12 -0.56,-0.27zm13.06 8.67c-0.14,-0.2 -0.15,-0.2 -0.15,-0.22 0,-0.04 0.01,-0.08 0.5,-0.05 0.03,0 0.2,0.07 -0.14,0.39 -0.08,0.08 -0.08,-0 -0.21,-0.12z"/>
 </g>
</svg>
