<?xml version="1.0" encoding="UTF-8"?>
<!DOCTYPE svg PUBLIC "-//W3C//DTD SVG 1.1//EN" "http://www.w3.org/Graphics/SVG/1.1/DTD/svg11.dtd">
<!-- Creator: CorelDRAW (Versão OEM) -->
<svg xmlns="http://www.w3.org/2000/svg" xml:space="preserve" width="36.7056mm" height="15.9529mm" version="1.1" style="shape-rendering:geometricPrecision; text-rendering:geometricPrecision; image-rendering:optimizeQuality; fill-rule:evenodd; clip-rule:evenodd"
viewBox="0 0 71.1 30.9"
 xmlns:xlink="http://www.w3.org/1999/xlink"
 xmlns:xodm="http://www.corel.com/coreldraw/odm/2003">
 <defs>
  <style type="text/css">
   <![CDATA[
    .fil0 {fill:#FEFEFE}
   ]]>
  </style>
 </defs>
 <g id="Camada_x0020_1">
  <metadata id="CorelCorpID_0Corel-Layer"/>
  <path class="fil0" d="M59.51 30.85c-0.1,-0.01 -0.19,-0.02 -0.29,-0.03 -5.48,-0.78 -8.17,-5.13 -8.63,-8.29 -1.46,-10.13 9.22,-14.89 16.2,-10.19 7.86,5.29 4.68,19.54 -7.28,18.51zm-49.62 -0.2c-2.31,0.22 -2.42,-0.77 -5.88,-6.35 -3.9,-6.27 -3.92,-6.29 -3.99,-6.93 -0.28,-2.63 3.09,-4.63 5.04,-1.49 0.97,1.56 1.95,3.11 2.92,4.67 1.21,1.95 1.31,2.2 1.47,1.95 0.3,-0.46 0.25,-0.49 4.83,-9.01 4.76,-8.86 4.77,-8.85 5.18,-9.63 1.51,-2.9 1.79,-3.11 2.03,-3.29 2.11,-1.58 5.47,0.62 3.84,3.65 -1.08,2.01 -13.46,25 -13.53,25.1 -0.77,1.17 -1.76,1.29 -1.91,1.33zm19.65 -19.86c5.24,0 5.3,-0.07 5.81,0.3 0.77,0.56 1.01,2.99 -0.28,3.52 -0.61,0.25 -6.43,0.02 -6.7,0.13 -0.19,0.08 -0.09,3.84 -0.06,3.88 0.18,0.27 5.25,-0.15 5.99,0.24 1,0.53 1.01,2.93 -0,3.47 -0.76,0.4 -5.81,-0.02 -5.99,0.24 -0.08,0.12 -0.03,4.05 -0.03,4.06 0.04,0.17 0.13,0.14 4.47,0.14 1.32,0 3.59,-0.5 3.23,2.5 -0.2,1.68 -1.3,1.43 -4.69,1.43 -6.66,-0 -6.74,0.07 -7.39,-0.47 -0.69,-0.58 -0.6,-0.73 -0.6,-8.26 0,-9.71 -0.06,-9.76 0.34,-10.38 0.58,-0.9 1.15,-0.78 5.89,-0.78zm10.42 0.01c1.34,-0.02 2.8,-0.25 3.22,1.32 0.19,0.69 -0.01,14.44 0.11,14.59 0.14,0.18 4.51,0.04 5.53,0.09 1.8,0.09 1.48,2.49 1.35,2.84 -0.44,1.21 -0.9,1.04 -5.73,1.04 -4.56,-0 -5.39,0.19 -5.9,-1.06 -0.22,-0.54 -0.2,-0.56 -0.2,-13.32 0,-4.11 -0.27,-5.21 1.62,-5.51zm21.41 4.18c0.06,0.01 3.13,0.1 4.3,3.36 1.1,3.06 0.09,8.32 -5.27,8.14 -6.63,-0.23 -6.63,-11.65 0.39,-11.52 0.19,0 0.39,0.02 0.58,0.02zm5.55 -6.5c-0.25,0.01 -2.03,0.34 -3.58,-1.06 -2.86,-2.58 -1.09,-8.09 3.77,-7.36 3.88,0.59 5.23,7.22 -0.2,8.41zm-22.48 -0.03c-0.96,-0 -1.15,0.2 -1.61,-0.64 -1.25,-2.28 -1.29,-2.64 -1.8,-2.52 -0.47,0.12 0.32,3.08 -0.58,3.15 -1.73,0.13 -1.59,-0.33 -1.6,-0.41 -0.01,-0.06 -0.08,-7.39 0.05,-7.69 0.12,-0.27 0.21,-0.24 3.4,-0.25 3.62,-0.01 3.91,3.76 1.64,4.88 -0.48,0.24 -0.12,0.52 0.17,1.04 0.87,1.53 1.57,2.4 0.73,2.43 -0.13,0.01 -0.26,0 -0.39,0.01zm-10.13 0.03c-0.19,0 -2.25,0.32 -3.75,-1.27 -2.35,-2.49 -0.92,-7.8 3.95,-7.16 2.27,0.3 3.71,2.69 2.53,2.7 -1.61,0.02 -1.62,-0.04 -1.75,-0.18 -1.75,-1.95 -4.58,0.14 -3.56,2.81 0.68,1.8 3.59,1.7 4.09,0.02 0.1,-0.34 -1.11,-0.17 -2.09,-0.21 -0.65,-0.03 -0.59,-1.41 -0,-1.48 0.02,-0 3.58,-0.08 3.79,0.05 0.6,0.39 0.44,3.99 -2.9,4.67 -0.1,0.02 -0.2,0.02 -0.3,0.04zm21.32 -0.03c-0.06,-0 -0.59,-0.04 -0.69,-0.22 -0.19,-0.33 -0.07,-7.78 -0.07,-7.79 0.07,-0.29 0.15,-0.48 3.68,-0.33 1.83,0.08 2.72,1.29 2.72,2.66 -0.01,3.23 -4.14,2.7 -4.18,2.7 -0.32,0.01 -0.16,0.2 -0.19,2.46 -0.01,0.69 -0.9,0.52 -1.27,0.52zm-6.32 0.02c-0.03,-0.01 -1.76,-0.19 -2.51,-1.82 -0.2,-0.42 -0.39,-0.85 -0.32,-5.83 0.01,-0.89 0.38,-0.73 1.56,-0.72 0.58,0.01 0.5,0.29 0.5,3.25 -0,1.09 -0.34,3.39 1.54,3.27 2.01,-0.13 1.31,-2.11 1.42,-5.99 0.02,-0.67 0.63,-0.53 1.5,-0.52 0.66,0 0.53,0.71 0.53,0.91 0.01,4.65 0.09,5.34 -0.74,6.31 -1.28,1.5 -3.34,1.15 -3.48,1.14zm15.39 -2.41c-0.03,-0.04 -0.46,-0.41 -0.61,-1.24 -0.58,-3.42 3.54,-3.92 4.2,-1.46 0.72,2.65 -1.78,4.27 -3.59,2.71zm-21.4 -3.29c-0.12,1.13 -0.83,1.03 -2.18,1.01 -0.17,-0 -0.23,-0.07 -0.24,-0.23 -0.05,-1.7 -0,-1.74 0.13,-1.79 0.03,-0.01 1.33,-0.07 1.66,0.06 0.65,0.25 0.62,0.88 0.63,0.94zm13.98 1.03c-0.55,-0.07 -0.39,-0.28 -0.39,-0.84 0,-0.67 -0.12,-1.24 0.29,-1.24 0.03,-0 2.37,-0.33 2,1.32 -0.2,0.9 -1.29,0.75 -1.91,0.75z"/>
 </g>
</svg>
